<svg xmlns="http://www.w3.org/2000/svg" width="1400" height="1000" viewBox="0 0 1400 1000">
  <defs>
    <filter id="grain" x="-10%" y="-10%" width="120%" height="120%">
      <feTurbulence type="fractalNoise" baseFrequency="0.72" numOctaves="5" seed="22" result="noise"/>
      <feColorMatrix in="noise" type="matrix" values="0.65 0 0 0 0.1 0 0.6 0 0 0.08 0 0 0.52 0 0.05 0 0 0 0.28 0"/>
    </filter>
    <linearGradient id="paper" x1="0" x2="1" y1="0" y2="1">
      <stop offset="0" stop-color="#fbf8f0"/>
      <stop offset="0.48" stop-color="#f1eadc"/>
      <stop offset="1" stop-color="#e4dac6"/>
    </linearGradient>
    <linearGradient id="light" x1="0" x2="1">
      <stop offset="0" stop-color="#fffdf8" stop-opacity="0"/>
      <stop offset="0.5" stop-color="#fffdf8" stop-opacity="0.7"/>
      <stop offset="1" stop-color="#fffdf8" stop-opacity="0"/>
    </linearGradient>
    <linearGradient id="dark" x1="0" x2="1">
      <stop offset="0" stop-color="#6c5638" stop-opacity="0"/>
      <stop offset="0.5" stop-color="#6c5638" stop-opacity="0.24"/>
      <stop offset="1" stop-color="#6c5638" stop-opacity="0"/>
    </linearGradient>
  </defs>
  <rect width="1400" height="1000" fill="url(#paper)"/>
  <rect width="1400" height="1000" filter="url(#grain)" opacity="0.82"/>
  <path d="M110 -80 C190 160 120 330 230 540 C320 710 260 870 340 1080" fill="none" stroke="url(#dark)" stroke-width="36" opacity="0.6"/>
  <path d="M132 -80 C210 160 140 332 250 540 C340 710 282 872 362 1080" fill="none" stroke="url(#light)" stroke-width="14" opacity="0.66"/>
  <path d="M720 -120 C650 90 760 260 700 430 C640 610 760 770 710 1120" fill="none" stroke="url(#dark)" stroke-width="34" opacity="0.56"/>
  <path d="M742 -120 C672 90 782 260 722 430 C662 610 782 770 732 1120" fill="none" stroke="url(#light)" stroke-width="13" opacity="0.7"/>
  <path d="M1220 -90 C1160 100 1280 260 1200 450 C1120 650 1260 780 1180 1100" fill="none" stroke="url(#dark)" stroke-width="32" opacity="0.5"/>
  <path d="M1241 -90 C1181 100 1301 260 1221 450 C1141 650 1281 780 1201 1100" fill="none" stroke="url(#light)" stroke-width="12" opacity="0.64"/>
  <path d="M-100 260 C220 220 410 320 640 270 C900 214 1120 315 1510 250" fill="none" stroke="url(#dark)" stroke-width="28" opacity="0.42"/>
  <path d="M-100 282 C220 242 410 342 640 292 C900 236 1120 337 1510 272" fill="none" stroke="url(#light)" stroke-width="11" opacity="0.58"/>
  <path d="M-80 780 C210 720 455 820 725 760 C980 704 1160 810 1480 725" fill="none" stroke="url(#dark)" stroke-width="26" opacity="0.38"/>
  <path d="M-80 798 C210 738 455 838 725 778 C980 722 1160 828 1480 743" fill="none" stroke="url(#light)" stroke-width="10" opacity="0.54"/>
</svg>
