<svg xmlns="http://www.w3.org/2000/svg" viewBox="0 0 900 230" role="img" aria-labelledby="title desc">
  <title id="title">TeaSourcex</title>
  <desc id="desc">TeaSourcex footer logo</desc>
  <g transform="translate(22 18)">
    <path d="M92 185c-49 0-88-39-88-88S43 9 92 9" fill="none" stroke="#e8f2ed" stroke-width="9" stroke-linecap="round"/>
    <path d="M78 170c-12-29 5-68 34-91 23-18 51-27 85-26-5 39-20 69-47 90-22 17-46 23-72 27Z" fill="#8dab45"/>
    <path d="M75 171c26-46 59-76 109-103" fill="none" stroke="#f7fbfa" stroke-width="9" stroke-linecap="round"/>
    <path d="M63 174c-17 13-31 4-25-14 4-13 25-44 25-44s15 33 12 47c-1 5-5 9-12 11Z" fill="#11a56a"/>
    <circle cx="142" cy="160" r="15" fill="#dce8d9"/>
    <circle cx="184" cy="134" r="15" fill="#dce8d9"/>
    <circle cx="196" cy="92" r="13" fill="#8dab45"/>
    <circle cx="175" cy="58" r="8" fill="#f7fbfa"/>
    <path d="M142 160 184 134 196 92 175 58M184 134l-42-1" fill="none" stroke="#b6ca8b" stroke-width="5"/>
  </g>
  <g fill="#f7fbfa" font-family="Avenir Next, Montserrat, Arial, sans-serif">
    <text x="270" y="116" font-size="70" font-weight="400" letter-spacing="14">TEA/SOURCE</text>
    <text x="815" y="116" font-size="86" font-weight="500" fill="#9fbd45">X</text>
    <text x="274" y="158" font-size="18" fill="#cdd9d4" letter-spacing="10">EXTRACT NATURE • EMPOWER BEVERAGES</text>
  </g>
</svg>
